<svg xmlns="http://www.w3.org/2000/svg" viewBox="0 0 109.01 106.81"><defs><style>.cls-1{fill:#3a9c4a;}.cls-2{fill:#338348;}.cls-3{fill:#63c170;}.cls-4{fill:#52a35a;}.cls-5{fill:#f6faf7;}</style></defs><g id="Layer_2" data-name="Layer 2"><g id="Layer_1-2" data-name="Layer 1"><g id="Group_45" data-name="Group 45"><path id="Path_11" data-name="Path 11" class="cls-1" d="M27.78,38A30.25,30.25,0,0,0,46.4,52.3c2.33.68,3.94,1.51,4.57,4.12a77.51,77.51,0,0,0,2.92,8.24c.5,1.35,1,2.77,2.88,2.59s2.28-1.74,2.71-3.11c.29-.92.56-1.84.93-2.74.55.5.21,1.24.5,1.83A40.31,40.31,0,0,1,64,72.74a12.35,12.35,0,0,1-.18,8.16,5.61,5.61,0,0,1-5.35-3.46c-1.67-3-2.23-2.88-5.48-1.89-4.63,1.44-5,2.12-4.87,6.85,0,1,.22,1.36,1.29,1.35s1.29-.48,1.2-1.42a7.91,7.91,0,0,1,0-2.33,1.2,1.2,0,0,1,1.4-1l.09,0c.66.17.4.83.31,1.3a81.2,81.2,0,0,0-1.77,9,29.45,29.45,0,0,0-1,6.93c0,.86.91.51,1.27.92a20.32,20.32,0,0,1-12.64,1.94c-7.67-1.51-13.4-6.24-18.94-11.3-.34-.32-1.14-.82-.6-1.62,1.26,0,2.94.69,3.16-1.35.14-1.3.74-1.39,1.76-1.39,4.5,0,9-.09,13.49-.15,1,0,1.86,0,1.9,1.44,0,1.15,1.08,1.53,2.16,1.47.87-.06,1.85-.24,1.79-1.36-.24-4.59.8-9.24-.69-13.76a37.86,37.86,0,0,1-1.59-4.9c-.31-1.78-1.17-2.59-2.91-2.59-5,0-9.91,0-14.87,0a2.62,2.62,0,0,0-2.8,1.92c-.89,2.51-1.81,5-2.71,7.52l-.14.54.06,10.81c-.27.54-.41.52-.86,0a52.89,52.89,0,0,1-12.69-31l1.82-.09C6.31,54.7,6.84,56,8.44,56.35c1,.23,1.33.9.49,1.67-1.36,1.24-.13,1.4.67,1.68,1,.32,1.59-.27,2.12-1a5.3,5.3,0,0,1,4.69-2.13,5.16,5.16,0,0,1,4.27,1.78A6,6,0,0,0,22,59.53a1.32,1.32,0,0,0,1.75-.25c.62-.57,0-.9-.27-1.28-.48-.61-.95-1.22.15-1.65a5.24,5.24,0,0,0,3.23-5.66c-.07-3.71-.16-7.42-.22-11.12C26.64,38.8,26.26,37.67,27.78,38ZM59.84,72.2c0-1.93-.77-2.81-2.3-2.91a2.32,2.32,0,0,0-2.62,2,2.83,2.83,0,0,0,0,.29,2.66,2.66,0,0,0,2.43,2.72,2.41,2.41,0,0,0,2.51-2.08Z"/><path id="Path_12" data-name="Path 12" class="cls-2" d="M61.87,57.37v-.19a5.14,5.14,0,0,1,4.73-5.07A23.33,23.33,0,0,0,75,48.22c.55-.36,1-.8,1.76-.6A6,6,0,0,0,81,55h0a5.53,5.53,0,0,0,6.7-4.05,5.61,5.61,0,0,0,0-2.48c-.65-3.38-2.62-4.54-7.18-4.74a41.28,41.28,0,0,0,4.81-7.25l.93-1.91,0-.12.14-.52a.19.19,0,0,0,.07-.26.93.93,0,0,0,.33-.91.14.14,0,0,0,.1-.17l0,0,.25-.56a19.91,19.91,0,0,0,1.21-6.66c4.23-1,8.51-1.73,12.77-2.53,1.39-.27,1.87.06,2.19,1.33a57.21,57.21,0,0,1,1.48,12A86.41,86.41,0,0,1,103,60.85a57.54,57.54,0,0,1-5.26,13.8,53.29,53.29,0,0,1-8.06,11.16A62.54,62.54,0,0,1,79,94.87a47.81,47.81,0,0,1-21.4,7.83,23.42,23.42,0,0,1-9.06-.27c1.44-.53,2.94-1,4.32-1.63a15.68,15.68,0,0,0,6.33-4.48l.43-.49a10.93,10.93,0,0,0,4.21-4.37,26.47,26.47,0,0,0,4.32-11.34,4.92,4.92,0,0,1,1.31,3.53A2.12,2.12,0,0,0,71,86.21l.19,0a2.44,2.44,0,0,0,2.73-2.11,1.1,1.1,0,0,0,0-.26c.07-.76.24-1,1-1,3.07,0,6.13,0,9.19-.05.71,0,1.09.17,1.09,1,0,2.15,1.6,1.85,2.93,1.81s1.57-1,1.56-2.2c0-.69-.25-1.46.29-2.07a5.15,5.15,0,0,0,1-3.68c0-4.5,0-9-.06-13.49a4.51,4.51,0,0,0-3.59-4.88,30.28,30.28,0,0,0-14.1-.36c-4.33.78-5.26,2.2-5.29,6.52,0,1.9,0,3.78-.07,5.67-.8-2.37-1.48-4.79-2.43-7.11A20.46,20.46,0,0,0,61.87,57.37Zm27.06-8.84c0,.93,0,1.58,0,2.23s.37.9,1,.87,1.45.29,1.36-.6c-.31-2.69,1.24-5.8-1.61-8-1.32-1-.19-1.6.38-2.08s.86-2,2.23-.7a7.24,7.24,0,0,0,4.82,2.29c.6,0,1-.09,1.06-.8s.2-1.23-.67-1.35a8.63,8.63,0,0,1-4.94-3.25c-.94-1-2-1.73-3.44-1-.83.46-1.92,1-2.23,1.73-.56,1.36-2.7,1.79-2.09,3.8a4.47,4.47,0,0,0,2,2.33c1.65,1.18,2.77,2.55,2.21,4.46ZM98,43.78a5.63,5.63,0,0,0,0,11.25,5.83,5.83,0,0,0,5.69-5.57A5.7,5.7,0,0,0,98,43.79Zm-6.13-9.36c-.14,1.33.86,1.92,2.06,2.15s2.39-1.19,2.3-2.34a2.13,2.13,0,0,0-2-2.21H94c-1.32,0-2.15.8-2.14,2.41Z"/><path id="Path_13" data-name="Path 13" class="cls-3" d="M56.45,57.6c-1-2.68-1.87-5-2.7-7.28a2.65,2.65,0,0,0-2.3-1.81,28.15,28.15,0,0,1-10.32-3.65c-8.41-5.19-12.91-12.59-12.06-22.6A23,23,0,0,1,40.31,4.63,28.29,28.29,0,0,1,59.66.26C69.13,1.38,80.1,6.64,83.12,20.07A21.42,21.42,0,0,1,77.69,39.6a27.08,27.08,0,0,1-16.28,8.87,2.9,2.9,0,0,0-2.47,2.16C58.24,52.86,57.38,55,56.45,57.6ZM38.63,20.27c-.75.15-.61.74-.61,1.24V35c0,.51-.09,1.08.64,1.22a3.92,3.92,0,0,0,4.52,3.13q13.4-.12,26.8-.29a3.54,3.54,0,0,0,4-3A3.38,3.38,0,0,0,74,35c0-4.9,0-9.78,0-14.68a27.84,27.84,0,0,0-.23-4.08c-.4-2.62-1.46-3.46-4.06-3.48a9,9,0,0,0-1.37,0c-1.37.2-1.7-.34-1.7-1.71a5.15,5.15,0,0,0-5-5.35,5.23,5.23,0,0,0-2.21.4,8,8,0,0,0-3.25,3,22.15,22.15,0,0,0-1.85-2,5.06,5.06,0,0,0-5.29-1c-1.7.6-3.22,1.78-3.17,3.58.06,2.7-1,3.31-3.51,3.33-2.94,0-3.61,1.07-3.65,4.1,0,1-.1,2.08-.14,3.11Z"/><path id="Path_14" data-name="Path 14" class="cls-4" d="M48.55,102.45a23.42,23.42,0,0,0,9.06.27A47.85,47.85,0,0,0,79,94.89a62.92,62.92,0,0,0,10.69-9.06,53.61,53.61,0,0,0,8.05-11.16A56.72,56.72,0,0,0,103,60.87a86.41,86.41,0,0,0,1.88-24.79,56.55,56.55,0,0,0-1.48-11.95c-.32-1.27-.8-1.6-2.19-1.33-4.26.81-8.54,1.55-12.76,2.53-.06-.38-.1-.76-.16-1.15-.38-2.11.5-2.88,2.62-3.3a128.82,128.82,0,0,1,13.65-2.19c1.14-.09,1.58.29,1.86,1.38a83.32,83.32,0,0,1,2.32,15.22A87.15,87.15,0,0,1,107,60.5,58.61,58.61,0,0,1,79.44,99.07a50.09,50.09,0,0,1-30.51,7.6A34.4,34.4,0,0,1,38,104c.06-.35-.11-.91.5-.83A32.32,32.32,0,0,0,48.55,102.45Z"/><path id="Path_15" data-name="Path 15" class="cls-3" d="M53,96.3c.1.67-.88.66-.35.34,1.36-.83,2.75-1.61,4.13-2.41-.3,2,.92,2.19,2.41,2.11a15.68,15.68,0,0,1-6.33,4.48c-1.37.67-2.88,1.09-4.32,1.63a32.34,32.34,0,0,1-10,.68c-.61-.08-.44.49-.5.84A59.72,59.72,0,0,1,22,95.2,57,57,0,0,1,.75,58.87,75.48,75.48,0,0,1,3.34,26.05c0-.12.1-.24.13-.36,1.18-4.62,1.19-4.67,5.8-3.8,4.15.79,8.31,1.52,12.41,2.56,2.07.53,2.89,1.48,2.64,3.5a6.57,6.57,0,0,0,.07,1.17c-.62.19-1.15-.18-1.68-.34a117.39,117.39,0,0,0-13.24-3c-.85-.16-1.94-.38-2.26.86a57,57,0,0,0-2.13,9.65c-.55.43-.32,1-.35,1.58l0,.75c-.24.14-.25.29,0,.43L3.9,45.28c0,.23,0,1.87,0,2.74v3.92a10,10,0,0,0,0,1.55,52.82,52.82,0,0,0,12.69,31c.43.5.57.52.86,0a2.06,2.06,0,0,0,1.39,1.78c-.54.8.26,1.31.6,1.62,5.54,5.06,11.27,9.8,18.94,11.3A20.33,20.33,0,0,0,51,97.19"/><path id="Path_16" data-name="Path 16" class="cls-5" d="M27.78,38c-1.52-.28-1.14.83-1.12,1.58.05,3.71.15,7.42.22,11.12a5.24,5.24,0,0,1-3.23,5.66c-1.1.44-.63,1.05-.15,1.66.29.37.89.7.27,1.28a1.31,1.31,0,0,1-1.75.24,6,6,0,0,1-1.33-1.13,5.15,5.15,0,0,0-4.27-1.77,5.25,5.25,0,0,0-4.69,2.13c-.53.68-1.17,1.26-2.12.94-.8-.28-2-.43-.68-1.68.84-.77.47-1.44-.48-1.66-1.6-.38-2.13-1.65-2.71-2.93-.11-.61-.21-1.23-.31-1.84l0-11.78v-.38l.08-1.19.45-1.15a7.63,7.63,0,0,1,5.58-2.71c5.28-.29,10.64-1,15.37,2.31a1,1,0,0,1,.95,1.1A1.18,1.18,0,0,1,27.78,38ZM8.3,44.12c-.05.53.16.77.72.62.71,0,1.42.09,2.13.09,4.14,0,4.14,0,3.67-4.25v-.2c0-.63-.26-1-.92-1H8.85c-.53,0-.64.32-.58.77l0,3.52Zm12.25.44c.94-.4,2.69.92,3.2-1.5.68-3.24.48-3.72-2.79-3.65-4,.09-3.44-.65-3.54,3.7,0,1.16.31,1.73,1.55,1.53.45-.07.91,0,1.58-.08Zm1.48,9c1,.39,1.44-.21,1.44-.94,0-1.19-1-1.81-1.89-2.12-.6-.2-1.33.3-1.37,1.25,0,1.33.53,2,1.83,1.81ZM11.74,51.86c.24-1.21-.63-1.54-1.14-1.48-.86.11-2.15.23-2.13,1.47a1.76,1.76,0,0,0,1.73,1.8h.1c1.22,0,1.11-1.25,1.44-1.79Z"/><path id="Path_17" data-name="Path 17" class="cls-1" d="M26.87,36.7c-4.74-3.34-10.09-2.61-15.37-2.31A7.63,7.63,0,0,0,5.92,37.1l-.82-.8a55.66,55.66,0,0,1,2.12-9.64c.32-1.25,1.42-1,2.27-.87a122.29,122.29,0,0,1,13.23,3c.55.17,1.07.54,1.69.34v0l.18.49a22.72,22.72,0,0,0,1.95,5.9l.19.34Z"/><path id="Path_18" data-name="Path 18" class="cls-3" d="M61.87,57.39A20.41,20.41,0,0,1,65.41,64c.94,2.3,1.63,4.73,2.43,7.1a67.74,67.74,0,0,0,.34,9,26.61,26.61,0,0,1-4.33,11.34,11,11,0,0,1-4.2,4.37,24.72,24.72,0,0,1-.06-5.16,15,15,0,0,0,3.89-7.05c1.75-.7,1.32-1.69.37-2.76A12.26,12.26,0,0,0,64,72.72a40.38,40.38,0,0,0-3.12-9.52c-.29-.59,0-1.32-.5-1.82C61.1,60.14,61,58.57,61.87,57.39Z"/><path id="Path_19" data-name="Path 19" class="cls-2" d="M78.35,48.82c-.36-2.43,1.85-2.36,3.12-3.21a10.69,10.69,0,0,1,2.11.27,3.52,3.52,0,0,1,2.59,3.84,3.44,3.44,0,0,1-2.57,3.43C80.71,54,78.68,52.34,78.35,48.82Z"/><path id="Path_20" data-name="Path 20" class="cls-5" d="M78.35,48.81c.33,3.53,2.36,5.22,5.26,4.33a3.47,3.47,0,0,0,2.57-3.44,3.53,3.53,0,0,0-2.6-3.83,10.59,10.59,0,0,0-2.1-.27,1.12,1.12,0,0,0-1.13-1.11h0c-.31,0-.74-.07-.58-.52s.56-.23.87-.25c4.56.2,6.53,1.36,7.17,4.73A5.55,5.55,0,0,1,83.55,55a5.61,5.61,0,0,1-2.48,0,6,6,0,0,1-4.3-7.32v-.05C77.31,48,77.47,48.9,78.35,48.81Z"/><path id="Path_21" data-name="Path 21" class="cls-5" d="M86.39,34.57l-.93,1.91C85.73,35.83,83.77,34.08,86.39,34.57Z"/><path id="Path_22" data-name="Path 22" class="cls-5" d="M87,32.76a1,1,0,0,1-.33.92A.83.83,0,0,1,87,32.76Z"/><path id="Path_23" data-name="Path 23" class="cls-5" d="M26.73,35.88l-.19-.34C26.77,35.56,27,35.59,26.73,35.88Z"/><path id="Path_24" data-name="Path 24" class="cls-5" d="M86.54,33.94l-.13.51a.33.33,0,0,1,.08-.48S86.52,33.94,86.54,33.94Z"/><path id="Path_25" data-name="Path 25" class="cls-5" d="M87.26,32l-.24.56Z"/><path id="Path_26" data-name="Path 26" class="cls-3" d="M24.58,29.63l-.18-.48Z"/><path id="Path_27" data-name="Path 27" class="cls-5" d="M18.83,86.22a2,2,0,0,1-1.39-1.78l-.06-10.81.14-.54c.9-2.51,1.82-5,2.71-7.52A2.62,2.62,0,0,1,23,63.65c5,0,9.91,0,14.86,0,1.75,0,2.6.81,2.92,2.59a37.86,37.86,0,0,0,1.59,4.9c1.49,4.52.45,9.17.69,13.76.06,1.12-.92,1.3-1.79,1.36-1.08.07-2.13-.31-2.16-1.47,0-1.5-.86-1.46-1.9-1.44-4.5.07-9,.13-13.49.15-1,0-1.62.09-1.76,1.39C21.76,86.91,20.09,86.24,18.83,86.22Zm7.58-20.47a2.19,2.19,0,0,1,.78,2.89,1.35,1.35,0,0,1-1.83.54l-.05,0c-1.07-.43-1.11-1.3-.67-2.26.25-.58-.12-.87-.58-1a1.23,1.23,0,0,0-1.53.52c-.62,1.57-1.08,3.2-1.55,4.82-.19.63.09,1,.8,1,1,0,2,.14,2.63-1.09a1.84,1.84,0,0,1,2.52-.55,2.17,2.17,0,0,1,.29.24c1.25,2.27,3.21,1,4.82,1.35.58.11.91-.15,1.23-.69a2,2,0,0,1,3.51-.07c.79,1.24,1.89.84,2.77.54s.38-1.2.16-1.85c-.29-.87-.64-1.71-.86-2.6-.5-2-1.8-2-3.65-1.44,1.46.68,1.63,1.73,1,2.7a1.42,1.42,0,0,1-2,.35,2,2,0,0,1-.26-.24c-1.22-1.11-.29-2,.49-3-.43,0-.73-.09-1-.09-2.32,0-4.66,0-7,0Zm13.51,11c.55-1.44-.53-2-1.68-2a1.93,1.93,0,0,0-2,1.9v.11c0,1.51,1,2,2.27,2s1.62-.77,1.38-2ZM24.79,77c-.11-1.64-1-2-2.17-2a1.85,1.85,0,0,0-1.95,2.14c0,2,1.89,1.18,2.83,1.51.68.22,1-1.2,1.28-1.69Z"/><path id="Path_28" data-name="Path 28" class="cls-5" d="M63.84,80.89c.94,1.06,1.37,2-.37,2.76a13.07,13.07,0,0,1-6.25-3c.25,1.66-1.22,3.17.08,4,2.3,1.54,2.25,3.7,2.28,6a24.53,24.53,0,0,0,0,5.14l-.43.49c-1.49.08-2.72-.14-2.41-2.11,0-1.49,0-3,.1-4.48a2.51,2.51,0,0,0-2-2.41c-.72-.24-1.13,1-1.37,1.9a31.8,31.8,0,0,1-1.83,7h-2a30.08,30.08,0,0,1,1-6.94,76.7,76.7,0,0,1,1.77-9c.09-.48.35-1.13-.32-1.31a1.2,1.2,0,0,0-1.46.87.19.19,0,0,0,0,.08,7.58,7.58,0,0,0,0,2.33c.09.94-.09,1.41-1.21,1.42s-1.26-.38-1.29-1.36C48,77.64,48.36,77,53,75.52c3.25-1,3.82-1.1,5.48,1.88A5.59,5.59,0,0,0,63.84,80.89Z"/><path id="Path_29" data-name="Path 29" class="cls-5" d="M59.84,72.2a2.41,2.41,0,0,1-2.51,2.08,2.66,2.66,0,0,1-2.43-2.72,2.31,2.31,0,0,1,2.35-2.29,1.32,1.32,0,0,1,.28,0C59.07,69.39,59.86,70.27,59.84,72.2Z"/><path id="Path_30" data-name="Path 30" class="cls-3" d="M17.52,73.08l-.14.55Z"/><path id="Path_31" data-name="Path 31" class="cls-5" d="M68.17,80.14a69.39,69.39,0,0,1-.34-9c0-1.89.06-3.78.07-5.67,0-4.32,1-5.74,5.29-6.53a30.41,30.41,0,0,1,14.1.36,4.52,4.52,0,0,1,3.59,4.88c0,4.5,0,9,.07,13.49a5.19,5.19,0,0,1-1,3.68c-.53.61-.29,1.38-.29,2.07,0,1.15-.15,2.16-1.56,2.21s-2.94.33-2.93-1.82c0-.8-.38-1-1.09-1q-4.59.06-9.19.05c-.76,0-.93.26-1,1a2.45,2.45,0,0,1-2.49,2.4l-.27,0a2.1,2.1,0,0,1-1.74-2.41l0-.19A4.89,4.89,0,0,0,68.17,80.14Zm11.34-16v.06H76.39c-6,0-6,0-5.56,6.07.07.91.31,1.24,1.25,1.22q7.42-.18,14.84-.26c.81,0,1.19-.23,1.15-1.11,0-1.57,0-3.13,0-4.69,0-1-.33-1.34-1.35-1.31-2.41.07-4.82,0-7.23,0Zm8.23,13.64c.25-1.35-.5-2.09-1.91-2.07s-1.93,1-1.89,2.22a1.83,1.83,0,0,0,1.67,2,1.76,1.76,0,0,0,.46,0c1-.1,2.05-.52,1.67-2.13ZM73.19,76.25c-1.31-.28-2.25.19-2.27,1.6s.9,2.1,2.29,2.1a1.81,1.81,0,0,0,1.94-1.68,1.5,1.5,0,0,0,0-.3c0-1.07-.43-2.14-2-1.72Z"/><path id="Path_32" data-name="Path 32" class="cls-5" d="M88.93,48.54c.56-1.91-.56-3.27-2.22-4.44a4.41,4.41,0,0,1-1.94-2.33c-.61-2,1.53-2.44,2.09-3.81.31-.76,1.39-1.28,2.22-1.72,1.4-.78,2.5,0,3.44,1a8.63,8.63,0,0,0,4.94,3.25c.87.11.71.76.68,1.35s-.47.81-1.06.79a7.16,7.16,0,0,1-4.82-2.28c-1.36-1.3-1.67.21-2.24.7s-1.7,1.07-.37,2.07c2.85,2.15,1.29,5.27,1.6,8,.1.87-.83.55-1.36.6s-1-.13-1-.87S88.93,49.47,88.93,48.54Z"/><path id="Path_33" data-name="Path 33" class="cls-5" d="M98,43.79a5.72,5.72,0,0,1,5.74,5.68A5.84,5.84,0,0,1,98,55,5.63,5.63,0,0,1,98,43.79Zm0,9.41a3.7,3.7,0,0,0,3.9-3.5.91.91,0,0,0,0-.17,4.08,4.08,0,0,0-3.79-4.16,4.57,4.57,0,0,0-4,3.86,3.94,3.94,0,0,0,3.92,4h0Z"/><path id="Path_34" data-name="Path 34" class="cls-5" d="M91.87,34.43c0-1.6.83-2.37,2.14-2.39a2.13,2.13,0,0,1,2.22,2,.49.49,0,0,1,0,.17c.1,1.15-1.23,2.56-2.3,2.34S91.73,35.77,91.87,34.43Z"/><path id="Path_35" data-name="Path 35" class="cls-5" d="M38.63,20.28c0-1,.11-2.08.12-3.12,0-3,.71-4.07,3.65-4.1,2.5,0,3.57-.63,3.51-3.33,0-1.8,1.48-3,3.17-3.58a5.06,5.06,0,0,1,5.29,1,23.55,23.55,0,0,1,1.85,2,8,8,0,0,1,3.25-3,5.16,5.16,0,0,1,7.16,5c0,1.37.33,1.9,1.7,1.7a9,9,0,0,1,1.37,0c2.59,0,3.66.87,4.06,3.48A27.89,27.89,0,0,1,74,20.32c0,4.9,0,9.78,0,14.67a3.55,3.55,0,0,1-2.92,4.07,3.45,3.45,0,0,1-1.11,0q-13.39.16-26.8.29a3.91,3.91,0,0,1-4.52-3.13Q38.64,28.27,38.63,20.28Zm12.3-3.84H43.44c-1.11,0-1.23.66-1.22,1.54,0,2.48,0,5,0,7.43,0,1.05.27,1.52,1.42,1.51q12.61-.06,25.23,0c1,0,1.39-.34,1.37-1.36-.08-2.67-.08-5.34-.13-8,0-.49.18-1.2-.59-1.22-2.61,0-5.22,0-8.11,0,1.12,1.56,1.85,2.79,2.79,3.84,1.11,1.25,0,1.68-.67,2.26s-1.44,1-2.22-.18c-1.57-2.28-3.3-4.45-5-6.71a4.68,4.68,0,0,0-.61.57c-1.57,2.15-3.17,4.27-4.67,6.47-.77,1.13-1.47.51-2-.05s-2.13-.61-1-2C49,19.34,49.79,18.07,50.93,16.44Zm7.21,15.82c-5.91,0-10.09.05-14.26,0-1.44,0-1.73.58-1.7,1.86s.22,1.77,1.59,1.75c8.41-.06,16.82-.09,25.23,0,1.7,0,1.44-1,1.5-2s-.19-1.78-1.6-1.71c-4.15.2-8.32.29-10.75.18ZM52.54,11.2a1.7,1.7,0,0,0-3.4-.11c0,1.05.72,1.62,1.77,1.64a1.49,1.49,0,0,0,1.63-1.34,1.15,1.15,0,0,0,0-.19Zm7.34.09c-.14,1,.69,1.44,1.52,1.44a1.6,1.6,0,0,0,1.7-1.5,1,1,0,0,0,0-.24,1.52,1.52,0,0,0-1.43-1.61H61.5c-1.08,0-1.66.62-1.6,1.92Z"/><path id="Path_36" data-name="Path 36" class="cls-3" d="M38.63,20.28l0,16c-.73-.13-.64-.71-.64-1.22V21.51C38,21,37.89,20.42,38.63,20.28Z"/><path id="Path_37" data-name="Path 37" class="cls-1" d="M51.74,96.28a31,31,0,0,0,1.82-7c.24-.93.65-2.14,1.37-1.9a2.5,2.5,0,0,1,2,2.41c-.08,1.49-.07,3-.1,4.48-1.37.8-2.77,1.58-4.13,2.41C52.13,97,51.84,97,51.74,96.28Z"/><path id="Path_38" data-name="Path 38" class="cls-1" d="M5.51,52.07c-.47.31-1.09.06-1.64,0,0-1.3,0-2.73,0-4,0-.87,0-2.51,0-2.74.26-2.08.51-4.16.77-6.25v-.43l0-.75.73.37-.08,1.19s-.12.09-.12.11a1.59,1.59,0,0,0,.12.27C5.4,43.72,5.49,48.16,5.51,52.07Z"/><path id="Path_39" data-name="Path 39" class="cls-1" d="M5.47,38.24l-.73-.38c0-.54-.2-1.15.36-1.58l.82.8Z"/><path id="Path_40" data-name="Path 40" class="cls-4" d="M4.7,38.62v.43C4.45,38.9,4.46,38.75,4.7,38.62Z"/><path id="Path_41" data-name="Path 41" class="cls-4" d="M8.26,40.2c-.07-.45.05-.77.58-.77H13.9c.65,0,.93.33.92,1a.67.67,0,0,0,0,.2c.47,4.24.47,4.25-3.68,4.25-.71,0-1.42-.06-2.13-.09a20.69,20.69,0,0,0,0-2.49C9,41.53,9.53,40.5,8.26,40.2Z"/><path id="Path_42" data-name="Path 42" class="cls-1" d="M20.55,44.56c-.68,0-1.14,0-1.58.08-1.24.21-1.57-.38-1.55-1.53.1-4.35-.49-3.61,3.53-3.7,3.28-.07,3.48.41,2.8,3.65C23.24,45.48,21.49,44.16,20.55,44.56Z"/><path id="Path_43" data-name="Path 43" class="cls-4" d="M22,53.52c-1.3.14-1.86-.47-1.81-1.8,0-.95.77-1.44,1.37-1.25.9.31,1.92.92,1.89,2.12C23.45,53.32,23,53.92,22,53.52Z"/><path id="Path_44" data-name="Path 44" class="cls-1" d="M11.74,51.86c-.33.54-.22,1.75-1.44,1.79A1.76,1.76,0,0,1,8.47,52a.2.2,0,0,1,0-.11c0-1.24,1.25-1.36,2.13-1.46C11.11,50.32,12,50.65,11.74,51.86Z"/><path id="Path_45" data-name="Path 45" class="cls-1" d="M8.27,40.2c1.27.29.68,1.33.75,2a20.69,20.69,0,0,1,0,2.49c-.55.15-.76-.09-.72-.63,0,0,.13-.09.13-.11a1.51,1.51,0,0,0-.13-.29Z"/><path id="Path_46" data-name="Path 46" class="cls-4" d="M5.4,39.8c0-.09-.08-.18-.11-.27s.07-.07.11-.1Z"/><path id="Path_47" data-name="Path 47" class="cls-4" d="M8.3,43.72a1.39,1.39,0,0,1,.12.28s-.08.08-.12.12Z"/><path id="Path_48" data-name="Path 48" class="cls-1" d="M59.58,90.7c0-2.27,0-4.43-2.28-6-1.3-.87.17-2.39-.08-4a13.11,13.11,0,0,0,6.25,3A15.09,15.09,0,0,1,59.58,90.7Z"/><path id="Path_49" data-name="Path 49" class="cls-4" d="M26.41,65.74h7c.31,0,.62.05,1,.09-.77,1-1.73,1.88-.49,3A1.42,1.42,0,0,0,36,69a1.55,1.55,0,0,0,.24-.27c.64-1,.47-2-1-2.69,1.85-.55,3.15-.56,3.65,1.44.22.88.57,1.73.86,2.59.22.66.77,1.53-.16,1.85s-2,.7-2.77-.54a2,2,0,0,0-2.68-.78,1.92,1.92,0,0,0-.83.86c-.32.54-.65.8-1.23.69-1.61-.32-3.57.92-4.82-1.36a1.82,1.82,0,0,0-2.57,0,2.17,2.17,0,0,0-.24.29c-.65,1.23-1.62,1-2.64,1.08-.71,0-1-.34-.79-1,.47-1.62.93-3.25,1.54-4.82a1.27,1.27,0,0,1,1.54-.53c.47.15.84.45.57,1-.43,1-.39,1.82.67,2.25a1.34,1.34,0,0,0,1.85-.46l0-.06A2.17,2.17,0,0,0,26.41,65.74Z"/><path id="Path_50" data-name="Path 50" class="cls-1" d="M39.92,76.72c.24,1.26,0,2.07-1.38,2s-2.29-.5-2.27-2a1.93,1.93,0,0,1,1.86-2h.11C39.39,74.7,40.47,75.27,39.92,76.72Z"/><path id="Path_51" data-name="Path 51" class="cls-1" d="M24.78,76.93c-.29.49-.6,1.91-1.28,1.68-.94-.33-2.81.5-2.83-1.51,0-1.23.54-2.11,1.95-2.14C23.8,74.94,24.67,75.3,24.78,76.93Z"/><path id="Path_52" data-name="Path 52" class="cls-2" d="M79.51,64.15c2.41,0,4.82,0,7.23,0,1,0,1.41.27,1.36,1.31-.07,1.56-.07,3.12,0,4.69,0,.88-.35,1.1-1.16,1.11q-7.41.09-14.83.26c-1,0-1.19-.31-1.25-1.22-.4-6-.42-6,5.55-6.07h3.12Z"/><path id="Path_53" data-name="Path 53" class="cls-2" d="M87.75,77.79c.38,1.61-.63,2-1.68,2.13A1.85,1.85,0,0,1,84,78.4a2.26,2.26,0,0,1,0-.45c0-1.25.53-2.21,1.89-2.23S88,76.45,87.75,77.79Z"/><path id="Path_54" data-name="Path 54" class="cls-2" d="M73.19,76.26c1.53-.43,2,.64,2,1.71a1.81,1.81,0,0,1-1.64,2h-.3c-1.39,0-2.31-.69-2.29-2.1S71.88,76,73.19,76.26Z"/><path id="Path_55" data-name="Path 55" class="cls-2" d="M98,53.2a3.93,3.93,0,0,1-3.91-4,4.55,4.55,0,0,1,4-3.86,4.07,4.07,0,0,1,3.79,4.15,3.7,3.7,0,0,1-3.73,3.68Z"/><path id="Path_56" data-name="Path 56" class="cls-3" d="M50.93,16.43c-1.15,1.63-1.92,2.9-2.86,4-1.18,1.44.45,1.51,1,2s1.23,1.18,2,.05c1.5-2.19,3.1-4.32,4.67-6.47a5.49,5.49,0,0,1,.61-.57c1.69,2.26,3.42,4.43,5,6.71.78,1.15,1.44.81,2.22.19s1.79-1,.67-2.26c-.94-1.06-1.67-2.29-2.79-3.85,2.88,0,5.5,0,8.11,0,.77,0,.58.72.59,1.21,0,2.67,0,5.35.12,8,0,1-.35,1.37-1.37,1.36q-12.6,0-25.22,0c-1.15,0-1.44-.45-1.43-1.51,0-2.47,0-4.95,0-7.43,0-.88.12-1.55,1.23-1.54C45.77,16.45,48.1,16.43,50.93,16.43Z"/><path id="Path_57" data-name="Path 57" class="cls-3" d="M58.15,32.26c2.43.11,6.6,0,10.76-.19,1.41-.07,1.66.53,1.6,1.72s.2,2-1.5,2q-12.62-.07-25.23,0c-1.37,0-1.57-.58-1.59-1.76s.25-1.88,1.7-1.85C48.07,32.32,52.24,32.26,58.15,32.26Z"/><path id="Path_58" data-name="Path 58" class="cls-3" d="M52.55,11.2a1.5,1.5,0,0,1-1.45,1.54h-.18c-1.05,0-1.82-.59-1.77-1.64a1.7,1.7,0,1,1,3.4.11Z"/><path id="Path_59" data-name="Path 59" class="cls-3" d="M59.9,11.3c0-1.31.53-1.94,1.62-1.92a1.52,1.52,0,0,1,1.6,1.43V11a1.6,1.6,0,0,1-1.46,1.74h-.24C60.58,12.74,59.75,12.26,59.9,11.3Z"/></g></g></g></svg>