<?xml version="1.0" encoding="UTF-8" standalone="no"?>
<svg
   viewBox="0 0 39 56"
   version="1.1"
   id="svg293"
   sodipodi:docname="gmap_marker_b.svg"
   width="39"
   height="56"
   inkscape:version="1.1.2 (0a00cf5339, 2022-02-04)"
   xmlns:inkscape="http://www.inkscape.org/namespaces/inkscape"
   xmlns:sodipodi="http://sodipodi.sourceforge.net/DTD/sodipodi-0.dtd"
   xmlns="http://www.w3.org/2000/svg"
   xmlns:svg="http://www.w3.org/2000/svg">
  <defs
     id="defs297" />
  <sodipodi:namedview
     id="namedview295"
     pagecolor="#ffffff"
     bordercolor="#666666"
     borderopacity="1.0"
     inkscape:pageshadow="2"
     inkscape:pageopacity="0.0"
     inkscape:pagecheckerboard="0"
     showgrid="false"
     inkscape:zoom="11.108108"
     inkscape:cx="9.9476886"
     inkscape:cy="24.306569"
     inkscape:window-width="1920"
     inkscape:window-height="1025"
     inkscape:window-x="0"
     inkscape:window-y="0"
     inkscape:window-maximized="1"
     inkscape:current-layer="svg293" />
  <g
     fill="none"
     id="g291"
     transform="matrix(1.507079,0,0,1.507079,0.05904,0.21146157)">
    <path
       d="M 13,0 C 5.817,0 0,5.773 0,12.918 0,20.573 5.59,23.444 9.555,30.078 12.09,34.321 11.342,37 13,37 14.723,37 13.975,34.257 16.445,30.142 20.085,23.86 26,20.605 26,12.918 26,5.773 20.183,0 13,0 Z"
       fill="#c5221f"
       id="path285" />
    <path
       d="m 13.017,35 c -0.233,0 -0.3,-0.065 -0.7,-1.275 -0.332,-1.046 -0.832,-2.648 -2.13,-4.61 C 8.922,27.187 7.591,25.617 6.326,24.113 3.363,20.517 1,17.706 1,12.64 1.033,6.199 6.393,1 13.017,1 19.641,1 25,6.23 25,12.639 c 0,5.067 -2.33,7.911 -5.326,11.507 -1.232,1.504 -2.53,3.073 -3.795,4.97 -1.265,1.928 -1.797,3.498 -2.13,4.544 -0.4,1.275 -0.5,1.34 -0.732,1.34 z"
       fill="#ea4335"
       id="path287" />
    <text
       text-anchor="middle"
       dy="0.30000001em"
       x="13"
       y="14"
       font-family="Roboto, Arial, sans-serif"
       font-size="16px"
       fill="#ffffff"
       id="text289">B</text>
  </g>
</svg>
