<?xml version="1.0" encoding="UTF-8" standalone="no"?>
<!-- Generator: Adobe Illustrator 19.0.0, SVG Export Plug-In . SVG Version: 6.00 Build 0)  -->

<svg
   version="1.1"
   id="Layer_1"
   x="0px"
   y="0px"
   viewBox="0 0 69 69"
   xml:space="preserve"
   inkscape:version="1.1.2 (0a00cf5339, 2022-02-04)"
   sodipodi:docname="marker_ab_red.svg"
   width="69"
   height="69"
   xmlns:inkscape="http://www.inkscape.org/namespaces/inkscape"
   xmlns:sodipodi="http://sodipodi.sourceforge.net/DTD/sodipodi-0.dtd"
   xmlns="http://www.w3.org/2000/svg"
   xmlns:svg="http://www.w3.org/2000/svg"
   xmlns:rdf="http://www.w3.org/1999/02/22-rdf-syntax-ns#"
   xmlns:cc="http://creativecommons.org/ns#"
   xmlns:dc="http://purl.org/dc/elements/1.1/"><metadata
     id="metadata11"><rdf:RDF><cc:Work
         rdf:about=""><dc:format>image/svg+xml</dc:format><dc:type
           rdf:resource="http://purl.org/dc/dcmitype/StillImage" /></cc:Work></rdf:RDF></metadata><defs
     id="defs9" /><sodipodi:namedview
     pagecolor="#ffffff"
     bordercolor="#666666"
     borderopacity="1"
     objecttolerance="10"
     gridtolerance="10"
     guidetolerance="10"
     inkscape:pageopacity="0"
     inkscape:pageshadow="2"
     inkscape:window-width="1920"
     inkscape:window-height="1025"
     id="namedview7"
     showgrid="false"
     inkscape:zoom="5.6568543"
     inkscape:cx="-0.79549513"
     inkscape:cy="29.521708"
     inkscape:window-x="0"
     inkscape:window-y="0"
     inkscape:window-maximized="1"
     inkscape:current-layer="Layer_1"
     inkscape:pagecheckerboard="0" /><style
     type="text/css"
     id="style3">
	.st0{fill:#333333;}
</style><g
     id="XMLID_2_"
     transform="matrix(0.66503475,0,0,0.66503475,-11.349287,-7.145392)"
     style="fill:#96120c;fill-opacity:1" /><path
     id="path4188"
     style="fill:#96120c;fill-opacity:1;stroke:none;stroke-width:1.74898"
     d="M 47.623469,23.526723 A 12.230373,12.230373 0 0 1 35.393096,35.757094 12.230373,12.230373 0 0 1 23.162723,23.526723 12.230373,12.230373 0 0 1 35.393096,11.29635 12.230373,12.230373 0 0 1 47.623469,23.526723 Z m -1.164841,-0.324774 c 0,-3.199064 -1.14252,-5.826866 -3.313315,-8.111909 -2.170789,-2.285044 -4.912844,-3.313313 -8.111906,-3.313313 -3.199061,0 -5.826862,1.142523 -8.111908,3.313313 -2.285043,2.170794 -3.313314,4.912845 -3.313314,8.111909 0,3.19906 1.142521,5.826862 3.313314,8.111904 2.170792,2.285046 4.912847,3.313315 8.111908,3.313315 3.199062,0 5.826863,-1.142521 8.111906,-3.313315 2.285044,-2.170791 3.313315,-4.912844 3.313315,-8.111904 z m 11.42522,0 c 0,3.19906 -0.457008,5.941113 -1.485278,7.997654 L 40.174756,65.703768 c -0.457009,1.028271 -1.142521,1.713784 -2.170793,2.285046 -1.028267,0.571261 -1.942289,0.914018 -2.970556,0.914018 -1.02827,0 -2.056541,-0.228505 -2.970557,-0.799768 -0.914016,-0.571261 -1.599532,-1.371025 -2.056539,-2.285042 L 13.668245,31.199603 c -1.028269,-2.056541 -1.48528,-4.798594 -1.48528,-7.997654 0,-6.283873 2.285046,-11.653726 6.740881,-16.1095637 4.455836,-4.4558344 9.82569,-6.7408786 16.109561,-6.7408786 6.283872,0 11.653723,2.2850442 16.109562,6.7408786 4.455835,4.4558377 6.740879,9.8256907 6.740879,16.1095637 z"
     inkscape:connector-curvature="0" /></svg>
