<?xml version="1.0" encoding="UTF-8" standalone="no"?>
<!-- Generator: Adobe Illustrator 19.0.0, SVG Export Plug-In . SVG Version: 6.00 Build 0)  -->

<svg
   version="1.1"
   id="Layer_1"
   x="0px"
   y="0px"
   viewBox="0 0 69 69"
   xml:space="preserve"
   inkscape:version="1.1.2 (0a00cf5339, 2022-02-04)"
   sodipodi:docname="marker_ab_green.svg"
   width="69"
   height="69"
   xmlns:inkscape="http://www.inkscape.org/namespaces/inkscape"
   xmlns:sodipodi="http://sodipodi.sourceforge.net/DTD/sodipodi-0.dtd"
   xmlns="http://www.w3.org/2000/svg"
   xmlns:svg="http://www.w3.org/2000/svg"
   xmlns:rdf="http://www.w3.org/1999/02/22-rdf-syntax-ns#"
   xmlns:cc="http://creativecommons.org/ns#"
   xmlns:dc="http://purl.org/dc/elements/1.1/"><metadata
     id="metadata11"><rdf:RDF><cc:Work
         rdf:about=""><dc:format>image/svg+xml</dc:format><dc:type
           rdf:resource="http://purl.org/dc/dcmitype/StillImage" /></cc:Work></rdf:RDF></metadata><defs
     id="defs9" /><sodipodi:namedview
     pagecolor="#ffffff"
     bordercolor="#666666"
     borderopacity="1"
     objecttolerance="10"
     gridtolerance="10"
     guidetolerance="10"
     inkscape:pageopacity="0"
     inkscape:pageshadow="2"
     inkscape:window-width="1920"
     inkscape:window-height="1025"
     id="namedview7"
     showgrid="false"
     inkscape:zoom="5.6568545"
     inkscape:cx="-24.483571"
     inkscape:cy="28.8146"
     inkscape:window-x="0"
     inkscape:window-y="0"
     inkscape:window-maximized="1"
     inkscape:current-layer="Layer_1"
     inkscape:pagecheckerboard="0" /><style
     type="text/css"
     id="style3">
	.st0{fill:#333333;}
</style><g
     id="XMLID_2_"
     transform="matrix(0.66503475,0,0,0.66503475,-11.349287,-7.145392)"
     style="fill:#0c9648;fill-opacity:1" /><path
     id="path4188"
     style="fill:#0c9648;fill-opacity:1;stroke:none;stroke-width:1.75008"
     d="M 48.479508,23.486839 A 12.298003,12.178506 0 0 1 36.181504,35.665342 12.298003,12.178506 0 0 1 23.883502,23.486839 12.298003,12.178506 0 0 1 36.181504,11.308333 12.298003,12.178506 0 0 1 48.479508,23.486839 Z m -1.171282,-0.323396 c 0,-3.185498 -1.148837,-5.802156 -3.331636,-8.077508 -2.182793,-2.275354 -4.940011,-3.299261 -8.156763,-3.299261 -3.216752,0 -5.859083,1.137677 -8.156764,3.299261 -2.297679,2.161589 -3.331636,4.89201 -3.331636,8.077508 0,3.185492 1.148839,5.802151 3.331636,8.077503 2.182795,2.275354 4.940012,3.299262 8.156764,3.299262 3.216752,0 5.859084,-1.137676 8.156763,-3.299262 2.297679,-2.161586 3.331636,-4.892011 3.331636,-8.077503 z m 11.488398,0 c 0,3.185492 -0.459534,5.915917 -1.493491,7.963736 L 40.989606,65.485018 c -0.459536,1.023909 -1.148839,1.706515 -2.182796,2.275354 -1.033954,0.568839 -1.953029,0.910142 -2.986983,0.910142 -1.033957,0 -2.067912,-0.227536 -2.986984,-0.796375 -0.91907,-0.568839 -1.608377,-1.365212 -2.06791,-2.275353 L 14.336521,31.127179 c -1.033954,-2.047819 -1.493492,-4.778244 -1.493492,-7.963736 0,-6.257224 2.297681,-11.604304 6.778155,-16.0412461 4.480477,-4.436938 9.880023,-6.712291 16.198643,-6.712291 6.31862,0 11.718165,2.275353 16.198643,6.712291 4.480475,4.4369421 6.778154,9.7840221 6.778154,16.0412461 z"
     inkscape:connector-curvature="0" /></svg>
