<svg xmlns="http://www.w3.org/2000/svg" viewBox="0 0 100.88 103.77"><defs><style>.cls-1{fill:#63c170;}.cls-2{fill:#007443;}.cls-3{fill:#fff;fill-opacity:0;}</style></defs><g id="Layer_2" data-name="Layer 2"><g id="Layer_1-2" data-name="Layer 1"><g id="sideicon-calendar"><g id="sideicon-calendar-2"><g id="Group_21" data-name="Group 21"><g id="Group_20" data-name="Group 20"><path id="Path_62" data-name="Path 62" class="cls-1" d="M28.09,6.82a3.21,3.21,0,0,0-3.2,3.2h0v6.41H31.3V10a3.21,3.21,0,0,0-3.21-3.2Z"/></g></g><g id="Group_23" data-name="Group 23"><g id="Group_22" data-name="Group 22"><path id="Path_63" data-name="Path 63" class="cls-1" d="M73.62,6.82a3.2,3.2,0,0,0-3.2,3.2v6.41h6.4V10A3.2,3.2,0,0,0,73.62,6.82Z"/></g></g><g id="Group_25" data-name="Group 25"><g id="Group_24" data-name="Group 24"><path id="Path_64" data-name="Path 64" class="cls-1" d="M86.59,16.43H76.85v13a3.25,3.25,0,1,1-6.5,0h0v-13h-39v13a3.25,3.25,0,0,1-6.5,0h0v-13H15.13a9.76,9.76,0,0,0-9.75,9.76h0V88a9.77,9.77,0,0,0,9.75,9.77H86.59A9.77,9.77,0,0,0,96.34,88h0V26.19a9.76,9.76,0,0,0-9.75-9.76ZM89.84,88a3.26,3.26,0,0,1-3.25,3.26H15.13A3.25,3.25,0,0,1,11.88,88V45.71h78Z"/></g></g><g id="Group_27" data-name="Group 27"><g id="Group_26" data-name="Group 26"><path id="Path_65" data-name="Path 65" class="cls-2" d="M31.27,52.35H24.86a3.2,3.2,0,1,0,0,6.4h6.41a3.2,3.2,0,0,0,0-6.4Z"/></g></g><g id="Group_29" data-name="Group 29"><g id="Group_28" data-name="Group 28"><path id="Path_66" data-name="Path 66" class="cls-2" d="M54.06,52.35H47.65a3.2,3.2,0,1,0,0,6.4h6.41a3.2,3.2,0,0,0,0-6.4Z"/></g></g><g id="Group_31" data-name="Group 31"><g id="Group_30" data-name="Group 30"><path id="Path_67" data-name="Path 67" class="cls-2" d="M76.85,52.35h-6.4a3.2,3.2,0,0,0,0,6.4h6.4a3.2,3.2,0,1,0,0-6.4Z"/></g></g><g id="Group_33" data-name="Group 33"><g id="Group_32" data-name="Group 32"><path id="Path_68" data-name="Path 68" class="cls-2" d="M31.27,65.36H24.86a3.2,3.2,0,1,0,0,6.4h6.43a3.2,3.2,0,1,0,0-6.4Z"/></g></g><g id="Group_35" data-name="Group 35"><g id="Group_34" data-name="Group 34"><path id="Path_69" data-name="Path 69" class="cls-2" d="M54.06,65.36H47.65a3.2,3.2,0,0,0,0,6.4h6.43a3.2,3.2,0,1,0,0-6.4Z"/></g></g><g id="Group_37" data-name="Group 37"><g id="Group_36" data-name="Group 36"><path id="Path_70" data-name="Path 70" class="cls-2" d="M76.85,65.36h-6.4a3.2,3.2,0,1,0,0,6.4h6.42a3.2,3.2,0,1,0,0-6.4Z"/></g></g><g id="Group_39" data-name="Group 39"><g id="Group_38" data-name="Group 38"><path id="Path_71" data-name="Path 71" class="cls-2" d="M31.27,78.56H24.86a3.21,3.21,0,0,0,0,6.41h6.43a3.21,3.21,0,0,0,0-6.41Z"/></g></g><g id="Group_41" data-name="Group 41"><g id="Group_40" data-name="Group 40"><path id="Path_72" data-name="Path 72" class="cls-2" d="M54.06,78.56H47.65a3.21,3.21,0,0,0,0,6.41h6.43a3.21,3.21,0,0,0,0-6.41Z"/></g></g><g id="Group_43" data-name="Group 43"><g id="Group_42" data-name="Group 42"><path id="Path_73" data-name="Path 73" class="cls-2" d="M76.85,78.56h-6.4a3.21,3.21,0,0,0,0,6.41h6.4a3.21,3.21,0,0,0,0-6.41Z"/></g></g></g><rect id="Rectangle_82" data-name="Rectangle 82" class="cls-3" width="100.88" height="103.77"/></g></g></g></svg>