<svg xmlns="http://www.w3.org/2000/svg" xmlns:xlink="http://www.w3.org/1999/xlink" viewBox="0 0 103.77 103.77"><defs><style>.cls-1{fill:none;}.cls-2{clip-path:url(#clip-path);}.cls-3{clip-path:url(#clip-path-2);}.cls-4{fill:#007443;}.cls-5{fill:#fff;}</style><clipPath id="clip-path"><rect class="cls-1" width="103.77" height="103.77" rx="17.29"/></clipPath><clipPath id="clip-path-2"><rect class="cls-1" x="-21.39" y="-17.4" width="146.37" height="140.96"/></clipPath></defs><g id="Layer_2" data-name="Layer 2"><g id="Layer_1-2" data-name="Layer 1"><g class="cls-2"><g id="Mask_Group_1" data-name="Mask Group 1"><g id="Group_59" data-name="Group 59"><g id="Group_58" data-name="Group 58"><g class="cls-3"><g id="Group_57" data-name="Group 57"><path id="Path_80" data-name="Path 80" class="cls-4" d="M118.4,123.55H-14.83A11.71,11.71,0,0,1-21.39,117V-10.8a11.76,11.76,0,0,1,6.56-6.6H118.4c5.15,2.1,6.61,6,6.58,11.44-.16,28.36-.16,89.72,0,118.08,0,5.39-1.44,9.34-6.58,11.44M74.61,73.9a7.89,7.89,0,0,1,.23,1.36C74.4,83.53,76,82,82,82.1h.29c3.86,0,4.24-.42,4.27-4.32,0-2.06-.39-4.15,1.75-5.67.61-.43.74-1.79.77-2.74.1-2.89.1-5.79,0-8.69a43.43,43.43,0,0,0-.68-11,181.46,181.46,0,0,0-7.6-20.47,13.61,13.61,0,0,0-14-9c-11.32.38-22.66.05-34,.12A13.1,13.1,0,0,0,20,28.88Q16,38.36,12.16,48a9.67,9.67,0,0,0-.62,3.5c-.07,5.89,0,11.79,0,17.69,0,.78-.11,1.94.33,2.29,2.71,2.15,2.13,5.11,2.21,7.93a2.48,2.48,0,0,0,2.14,2.77,2.39,2.39,0,0,0,1-.09c2.85-.55,6.52,2,8.45-2.08a5.4,5.4,0,0,0,.09-2.08v-4Z"/><path id="Path_81" data-name="Path 81" class="cls-5" d="M74.61,73.9H25.78v4a5.4,5.4,0,0,1-.1,2.08C23.75,84,20.08,81.48,17.24,82a2.47,2.47,0,0,1-3.07-1.68,2.5,2.5,0,0,1-.08-1c-.09-2.82.5-5.78-2.22-7.93-.44-.35-.33-1.51-.33-2.29,0-5.9,0-11.8,0-17.69a9.72,9.72,0,0,1,.63-3.5Q16,38.39,20,28.89a13.09,13.09,0,0,1,12.82-8.55c11.33-.08,22.67.25,34-.13a13.6,13.6,0,0,1,14,9,179.6,179.6,0,0,1,7.61,20.47,43.9,43.9,0,0,1,.68,11c.08,2.89.08,5.79,0,8.69,0,1-.17,2.31-.77,2.74-2.14,1.51-1.73,3.61-1.75,5.66,0,3.9-.4,4.29-4.27,4.33H82c-6-.15-7.61,1.44-7.18-6.84a7,7,0,0,0-.22-1.36m-44-25.47c-1.84-4.45-3.72-8.76-5.41-13.15-.58-1.52-.29-3.32,1.63-3.46a3.8,3.8,0,0,1,3,1.93,15,15,0,0,0,15.61,11.3c2,0,3.9,2,6,2.61,1.32.39,3.62.53,4.21-.23a5.87,5.87,0,0,1,5.36-2.5q3.87.14,7.74,0a5.88,5.88,0,0,1,5.11,2.4,4.14,4.14,0,0,0,4,.49c1.41-.83,4.53-1,3.36-3.94a142.09,142.09,0,0,0-7-15.52,7.48,7.48,0,0,0-5.49-3.21C56.67,24.87,44.55,25,32.43,25a6.83,6.83,0,0,0-7,4.17c-2,4.88-3.91,9.78-5.69,14.75a3.06,3.06,0,0,0,.88,2.4c3,3.37,7,1.82,10,2.09M80.6,59.93a5.24,5.24,0,0,0-5-5.44h-.09a5.32,5.32,0,0,0-.6,10.62h.33A5.27,5.27,0,0,0,80.6,60v0m-49.9,0a5.32,5.32,0,1,0-5.41,5.23h.08A5.22,5.22,0,0,0,30.7,60v-.13"/><path id="Path_82" data-name="Path 82" class="cls-4" d="M30.66,48.44c-3-.27-7,1.27-10-2.09a3.07,3.07,0,0,1-.88-2.4c1.78-5,3.69-9.87,5.69-14.74a6.86,6.86,0,0,1,7-4.18c12.1,0,24.24-.15,36.35.13a7.52,7.52,0,0,1,5.49,3.22,142,142,0,0,1,7,15.52c1.18,2.9-1.94,3.11-3.36,3.94a4.14,4.14,0,0,1-4-.49,5.87,5.87,0,0,0-5.1-2.4c-2.58.1-5.17.1-7.75,0a5.9,5.9,0,0,0-5.35,2.5c-.58.76-2.88.63-4.22.23-2.08-.62-4-2.57-6-2.61A15,15,0,0,1,29.9,33.77a3.8,3.8,0,0,0-3-1.93C25,32,24.64,33.77,25.23,35.3c1.7,4.39,3.57,8.71,5.42,13.16m11.27-17.4a5.8,5.8,0,1,0,5.85,5.88,5.85,5.85,0,0,0-5.83-5.88h0m23,.7a5.77,5.77,0,1,0,5.7,5.83v-.1a5.76,5.76,0,0,0-5.7-5.73"/><path id="Path_83" data-name="Path 83" class="cls-4" d="M80.6,59.93a5.27,5.27,0,0,1-5.36,5.19h0a5.32,5.32,0,0,1-.07-10.64h.34a5.24,5.24,0,0,1,5.12,5.35v.09"/><path id="Path_84" data-name="Path 84" class="cls-4" d="M30.7,59.89a5.32,5.32,0,1,1-5.23-5.4h.09a5.24,5.24,0,0,1,5.15,5.32v.08"/><path id="Path_85" data-name="Path 85" class="cls-5" d="M41.93,31a5.8,5.8,0,1,1-5.72,5.87v-.16A5.84,5.84,0,0,1,41.93,31"/><path id="Path_86" data-name="Path 86" class="cls-5" d="M64.89,31.77a5.77,5.77,0,1,1-5.78,5.74V37.4a5.75,5.75,0,0,1,5.78-5.63"/></g></g></g></g></g></g></g></g></svg>