<svg xmlns="http://www.w3.org/2000/svg" viewBox="0 0 118.18 115.3"><defs><style>.cls-1{fill:#fff;fill-opacity:0;}.cls-2{fill:#63c170;}.cls-3{fill:#007443;}</style></defs><g id="Layer_2" data-name="Layer 2"><g id="Layer_1-2" data-name="Layer 1"><g id="icon-ridesharing"><rect id="Rectangle_75" data-name="Rectangle 75" class="cls-1" width="118.18" height="115.3"/><g id="Group_5" data-name="Group 5"><g id="car-compact"><path id="Path_1" data-name="Path 1" class="cls-2" d="M107.93,61.15a12.79,12.79,0,0,0-1.24-5.51c-.08-.44-.17-.87-.28-1.31L97.8,33l0-.19c-3-9-7.3-17.26-18.16-17.26H38.05c-11.13,0-15.07,8.5-18.14,17.21l-9,21.38a13.1,13.1,0,0,0-2,7v6.63a12.62,12.62,0,0,0,.35,3,5.23,5.23,0,0,0-.35,1.88V92.39a5.23,5.23,0,0,0,5.24,5.24H25a5.23,5.23,0,0,0,5.24-5.24h0V82.51h57v9.87a5.24,5.24,0,0,0,5.24,5.24h10.25a5.25,5.25,0,0,0,5.24-5.24h0V72.66a5.23,5.23,0,0,0-.35-1.88,13.15,13.15,0,0,0,.35-3V61.15ZM26.29,34.92c3.43-9.67,6.19-12.62,11.76-12.62H79.58c5.53,0,8.61,3.29,11.74,12.57L97.6,47.6a19,19,0,0,0-6.68-1.18h-65a19.43,19.43,0,0,0-6.05,1Zm5.4,35.38H20.21a3.75,3.75,0,0,1,0-7.49H31.69a3.75,3.75,0,0,1,0,7.49Zm40.53-.74H45.53a2.37,2.37,0,0,1,0-4.74H72.22a2.37,2.37,0,0,1,0,4.74Zm24.07.74H84.82a3.75,3.75,0,1,1,0-7.49H96.29a3.75,3.75,0,1,1,0,7.49Z"/></g><circle id="Ellipse_1" data-name="Ellipse 1" class="cls-2" cx="59.03" cy="32.87" r="6.61"/><circle id="Ellipse_2" data-name="Ellipse 2" class="cls-3" cx="40.46" cy="36.33" r="8.19"/><circle id="Ellipse_3" data-name="Ellipse 3" class="cls-3" cx="77.61" cy="36.33" r="8.19"/></g></g></g></g></svg>