<svg xmlns="http://www.w3.org/2000/svg" viewBox="0 0 109.64 107.99"><defs><style>.cls-1{fill:#63c170;}.cls-2{fill:#007443;}.cls-3{fill:#001c42;}</style></defs><g id="Layer_2" data-name="Layer 2"><g id="Layer_1-2" data-name="Layer 1"><g id="Group_46" data-name="Group 46"><path id="Path_6" data-name="Path 6" class="cls-1" d="M54,108A54,54,0,1,1,104.8,35.71,3.11,3.11,0,1,1,99,37.82h0a47.81,47.81,0,1,0-21.33,57.7,3.11,3.11,0,0,1,3.09,5.4h0A54,54,0,0,1,54,108Z"/><path id="Path_7" data-name="Path 7" class="cls-2" d="M39.66,10.79l1.44-.42L55.59,53.66,51.1,55Z"/><circle id="Ellipse_4" data-name="Ellipse 4" class="cls-3" cx="53.44" cy="54.61" r="2.34"/><path id="Path_8" data-name="Path 8" class="cls-2" d="M25.9,77.21,25,76,51.8,52.88l2.88,3.68Z"/><path id="Path_9" data-name="Path 9" class="cls-1" d="M104.39,43.13,92.78,38.06a3.11,3.11,0,0,1,2.49-5.7L101.18,35l2.5-5.73a3.11,3.11,0,1,1,5.7,2.48Z"/></g></g></g></svg>